<mxfile host="app.diagrams.net" modified="2023-06-07T17:27:06.864Z" agent="5.0 (Windows NT 10.0; Win64; x64) AppleWebKit/537.36 (KHTML, like Gecko) Chrome/114.0.0.0 Safari/537.36" etag="885JNqJ9Ff9w6FxcTPMZ" version="20.8.10" type="github">
  <diagram name="第 1 页" id="SSLs9a8aK7hEzwHF-V_V">
    <mxGraphModel dx="568" dy="288" grid="1" gridSize="10" guides="1" tooltips="1" connect="1" arrows="1" fold="1" page="1" pageScale="1" pageWidth="827" pageHeight="1169" math="1" shadow="0">
      <root>
        <mxCell id="0" />
        <mxCell id="1" parent="0" />
        <mxCell id="sfnMSoEM-NCYtmPpQdEC-3" value="$$\mathbb{P}$$" style="text;html=1;strokeColor=none;fillColor=none;align=center;verticalAlign=middle;whiteSpace=wrap;rounded=0;" parent="1" vertex="1">
          <mxGeometry x="620" y="281.88" width="20" height="20" as="geometry" />
        </mxCell>
        <mxCell id="sfnMSoEM-NCYtmPpQdEC-15" value="" style="edgeStyle=orthogonalEdgeStyle;rounded=0;orthogonalLoop=1;jettySize=auto;html=1;fontFamily=Times New Roman;fontSize=11;entryX=0.5;entryY=0;entryDx=0;entryDy=0;exitX=0;exitY=0.5;exitDx=0;exitDy=0;" parent="1" source="Pp01OgDB8cOK3t0NA6hv-35" target="Pp01OgDB8cOK3t0NA6hv-34" edge="1">
          <mxGeometry relative="1" as="geometry">
            <mxPoint x="360" y="360" as="targetPoint" />
            <Array as="points">
              <mxPoint x="390" y="292" />
            </Array>
          </mxGeometry>
        </mxCell>
        <mxCell id="sfnMSoEM-NCYtmPpQdEC-5" value="$$\tilde{\mathbb{P}}$$" style="text;html=1;strokeColor=none;fillColor=none;align=center;verticalAlign=middle;whiteSpace=wrap;rounded=0;" parent="1" vertex="1">
          <mxGeometry x="470" y="281.88" width="20" height="20" as="geometry" />
        </mxCell>
        <mxCell id="sfnMSoEM-NCYtmPpQdEC-8" value="&lt;p style=&quot;line-height: 0%;&quot;&gt;&lt;font face=&quot;Times New Roman&quot; style=&quot;font-size: 11px;&quot;&gt;Relax&lt;/font&gt;&lt;/p&gt;" style="text;html=1;strokeColor=none;fillColor=none;align=center;verticalAlign=middle;whiteSpace=wrap;rounded=0;fontSize=7;" parent="1" vertex="1">
          <mxGeometry x="500" y="275" width="40" height="20" as="geometry" />
        </mxCell>
        <mxCell id="sfnMSoEM-NCYtmPpQdEC-16" value="&lt;font face=&quot;Times New Roman&quot;&gt;Lagrangian-&lt;/font&gt;&lt;span style=&quot;font-size: 11px; font-family: &amp;quot;Times New Roman&amp;quot;; background-color: initial;&quot;&gt;dual&lt;/span&gt;&lt;font face=&quot;Times New Roman&quot;&gt;&lt;br&gt;&lt;/font&gt;" style="text;html=1;strokeColor=none;fillColor=none;align=center;verticalAlign=middle;whiteSpace=wrap;rounded=0;fontSize=7;" parent="1" vertex="1">
          <mxGeometry x="351.25" y="272.19" width="150" height="24.38" as="geometry" />
        </mxCell>
        <mxCell id="sfnMSoEM-NCYtmPpQdEC-17" value="$$\mathbb{P}_c$$" style="text;html=1;strokeColor=none;fillColor=none;align=center;verticalAlign=middle;whiteSpace=wrap;rounded=0;" parent="1" vertex="1">
          <mxGeometry x="380" y="350" width="20" height="20" as="geometry" />
        </mxCell>
        <mxCell id="sfnMSoEM-NCYtmPpQdEC-20" value="" style="edgeStyle=orthogonalEdgeStyle;rounded=0;orthogonalLoop=1;jettySize=auto;html=1;fontFamily=Times New Roman;fontSize=11;entryX=0;entryY=0.5;entryDx=0;entryDy=0;exitX=1;exitY=0.5;exitDx=0;exitDy=0;" parent="1" source="sfnMSoEM-NCYtmPpQdEC-17" target="sfnMSoEM-NCYtmPpQdEC-21" edge="1">
          <mxGeometry relative="1" as="geometry">
            <mxPoint x="399" y="360" as="sourcePoint" />
            <mxPoint x="429" y="360" as="targetPoint" />
          </mxGeometry>
        </mxCell>
        <mxCell id="Zj2C13YoSEmznWc76173-2" style="edgeStyle=orthogonalEdgeStyle;rounded=0;orthogonalLoop=1;jettySize=auto;html=1;entryX=1;entryY=0.5;entryDx=0;entryDy=0;fontColor=#007FFF;" edge="1" parent="1" source="sfnMSoEM-NCYtmPpQdEC-21" target="Pp01OgDB8cOK3t0NA6hv-29">
          <mxGeometry relative="1" as="geometry">
            <Array as="points">
              <mxPoint x="570" y="400" />
            </Array>
          </mxGeometry>
        </mxCell>
        <mxCell id="sfnMSoEM-NCYtmPpQdEC-21" value="$$\tilde{\alpha}_{t+1}$$" style="text;html=1;strokeColor=none;fillColor=none;align=center;verticalAlign=middle;whiteSpace=wrap;rounded=0;" parent="1" vertex="1">
          <mxGeometry x="556.5" y="350" width="30" height="20" as="geometry" />
        </mxCell>
        <mxCell id="sfnMSoEM-NCYtmPpQdEC-22" value="&lt;p style=&quot;line-height: 0%;&quot;&gt;&lt;font face=&quot;Times New Roman&quot; style=&quot;font-size: 11px;&quot;&gt;Update&lt;/font&gt;&lt;/p&gt;" style="text;html=1;strokeColor=none;fillColor=none;align=center;verticalAlign=middle;whiteSpace=wrap;rounded=0;fontSize=7;" parent="1" vertex="1">
          <mxGeometry x="460" y="365" width="40" height="10" as="geometry" />
        </mxCell>
        <mxCell id="sfnMSoEM-NCYtmPpQdEC-29" value="" style="edgeStyle=orthogonalEdgeStyle;rounded=0;orthogonalLoop=1;jettySize=auto;html=1;fontFamily=Times New Roman;fontSize=11;exitX=1;exitY=0.5;exitDx=0;exitDy=0;entryX=0;entryY=0.5;entryDx=0;entryDy=0;" parent="1" source="Pp01OgDB8cOK3t0NA6hv-20" target="Pp01OgDB8cOK3t0NA6hv-44" edge="1">
          <mxGeometry relative="1" as="geometry">
            <mxPoint x="740" y="320" as="targetPoint" />
            <mxPoint x="720" y="320" as="sourcePoint" />
          </mxGeometry>
        </mxCell>
        <mxCell id="sfnMSoEM-NCYtmPpQdEC-28" value="$${Reg}_{T}^{d}$$" style="text;html=1;strokeColor=none;fillColor=none;align=center;verticalAlign=middle;whiteSpace=wrap;rounded=0;fontSize=11;fontFamily=Times New Roman;" parent="1" vertex="1">
          <mxGeometry x="745" y="274.38" width="30" height="20" as="geometry" />
        </mxCell>
        <mxCell id="sfnMSoEM-NCYtmPpQdEC-36" value="" style="rounded=1;whiteSpace=wrap;html=1;labelBorderColor=none;fontFamily=Times New Roman;fontSize=11;fillColor=none;strokeColor=none;" parent="1" vertex="1">
          <mxGeometry x="730" y="275" height="60" as="geometry" />
        </mxCell>
        <mxCell id="sfnMSoEM-NCYtmPpQdEC-48" style="edgeStyle=orthogonalEdgeStyle;rounded=0;orthogonalLoop=1;jettySize=auto;html=1;fontFamily=Times New Roman;fontSize=11;entryX=0.321;entryY=1;entryDx=0;entryDy=0;entryPerimeter=0;exitX=0;exitY=0.5;exitDx=0;exitDy=0;" parent="1" source="Pp01OgDB8cOK3t0NA6hv-29" edge="1">
          <mxGeometry relative="1" as="geometry">
            <mxPoint x="429.94000000000005" y="360" as="targetPoint" />
            <Array as="points">
              <mxPoint x="430" y="400" />
            </Array>
            <mxPoint x="450" y="400" as="sourcePoint" />
          </mxGeometry>
        </mxCell>
        <mxCell id="sfnMSoEM-NCYtmPpQdEC-39" value="$$\lambda_{t+1}$$" style="text;html=1;strokeColor=none;fillColor=none;align=center;verticalAlign=middle;whiteSpace=wrap;rounded=0;fontSize=11;fontFamily=Times New Roman;" parent="1" vertex="1">
          <mxGeometry x="465" y="390" width="30" height="20" as="geometry" />
        </mxCell>
        <mxCell id="sfnMSoEM-NCYtmPpQdEC-41" value="Dual Ascent&amp;nbsp; Step" style="text;html=1;strokeColor=none;fillColor=none;align=center;verticalAlign=middle;whiteSpace=wrap;rounded=0;fontSize=11;fontFamily=Times New Roman;" parent="1" vertex="1">
          <mxGeometry x="500" y="382.5" width="100" height="20" as="geometry" />
        </mxCell>
        <mxCell id="sfnMSoEM-NCYtmPpQdEC-50" value="Update" style="text;html=1;strokeColor=none;fillColor=none;align=center;verticalAlign=middle;whiteSpace=wrap;rounded=0;fontSize=11;fontFamily=Times New Roman;" parent="1" vertex="1">
          <mxGeometry x="510" y="402.5" width="70" height="10" as="geometry" />
        </mxCell>
        <mxCell id="Pp01OgDB8cOK3t0NA6hv-5" value="Accuracy Loss&lt;br&gt;Minimization" style="text;html=1;strokeColor=none;fillColor=none;align=center;verticalAlign=middle;whiteSpace=wrap;rounded=0;fontFamily=Times New Roman;" parent="1" vertex="1">
          <mxGeometry x="540" y="275.63" width="90" height="28.12" as="geometry" />
        </mxCell>
        <mxCell id="Pp01OgDB8cOK3t0NA6hv-11" value="Model Selection" style="text;html=1;strokeColor=none;fillColor=none;align=center;verticalAlign=middle;whiteSpace=wrap;rounded=0;fontSize=11;fontFamily=Times New Roman;" parent="1" vertex="1">
          <mxGeometry x="662.5" y="356.25" width="110" height="20" as="geometry" />
        </mxCell>
        <mxCell id="Pp01OgDB8cOK3t0NA6hv-12" value="Training" style="text;html=1;strokeColor=none;fillColor=none;align=center;verticalAlign=middle;whiteSpace=wrap;rounded=0;fontSize=11;fontFamily=Times New Roman;" parent="1" vertex="1">
          <mxGeometry x="662.5" y="343.75" width="100" height="15" as="geometry" />
        </mxCell>
        <mxCell id="Pp01OgDB8cOK3t0NA6hv-15" value="$$\mathbf{x}_{t}$$" style="text;html=1;strokeColor=none;fillColor=none;align=center;verticalAlign=middle;whiteSpace=wrap;rounded=0;fontFamily=Times New Roman;" parent="1" vertex="1">
          <mxGeometry x="730" y="346.25" width="32.5" height="7.5" as="geometry" />
        </mxCell>
        <mxCell id="Pp01OgDB8cOK3t0NA6hv-17" value="$$\mathbf{y}_{t}$$" style="text;html=1;strokeColor=none;fillColor=none;align=center;verticalAlign=middle;whiteSpace=wrap;rounded=0;fontFamily=Times New Roman;" parent="1" vertex="1">
          <mxGeometry x="755" y="355" width="25" height="17.5" as="geometry" />
        </mxCell>
        <mxCell id="Pp01OgDB8cOK3t0NA6hv-18" style="edgeStyle=orthogonalEdgeStyle;rounded=0;orthogonalLoop=1;jettySize=auto;html=1;exitX=0.5;exitY=1;exitDx=0;exitDy=0;fontFamily=Times New Roman;" parent="1" source="Pp01OgDB8cOK3t0NA6hv-17" target="Pp01OgDB8cOK3t0NA6hv-17" edge="1">
          <mxGeometry relative="1" as="geometry" />
        </mxCell>
        <mxCell id="dqOILAj7h7sax7pHXJvT-41" style="edgeStyle=orthogonalEdgeStyle;rounded=0;orthogonalLoop=1;jettySize=auto;html=1;fontColor=#007FFF;" parent="1" source="Pp01OgDB8cOK3t0NA6hv-19" edge="1">
          <mxGeometry relative="1" as="geometry">
            <mxPoint x="725" y="290" as="targetPoint" />
          </mxGeometry>
        </mxCell>
        <mxCell id="Pp01OgDB8cOK3t0NA6hv-19" value="" style="rounded=1;whiteSpace=wrap;html=1;strokeWidth=1;fontFamily=Times New Roman;fillColor=none;" parent="1" vertex="1">
          <mxGeometry x="675" y="341.25" width="100" height="35" as="geometry" />
        </mxCell>
        <mxCell id="Pp01OgDB8cOK3t0NA6hv-38" style="edgeStyle=orthogonalEdgeStyle;rounded=0;orthogonalLoop=1;jettySize=auto;html=1;entryX=1;entryY=0.5;entryDx=0;entryDy=0;fontFamily=Times New Roman;" parent="1" source="Pp01OgDB8cOK3t0NA6hv-20" target="Pp01OgDB8cOK3t0NA6hv-35" edge="1">
          <mxGeometry relative="1" as="geometry" />
        </mxCell>
        <mxCell id="Pp01OgDB8cOK3t0NA6hv-20" value="" style="rounded=1;whiteSpace=wrap;html=1;strokeWidth=1;fontFamily=Times New Roman;fillColor=none;" parent="1" vertex="1">
          <mxGeometry x="540" y="276.88" width="100" height="30" as="geometry" />
        </mxCell>
        <mxCell id="dqOILAj7h7sax7pHXJvT-24" value="" style="edgeStyle=orthogonalEdgeStyle;rounded=0;orthogonalLoop=1;jettySize=auto;html=1;" parent="1" source="Pp01OgDB8cOK3t0NA6hv-21" target="dqOILAj7h7sax7pHXJvT-23" edge="1">
          <mxGeometry relative="1" as="geometry" />
        </mxCell>
        <mxCell id="Pp01OgDB8cOK3t0NA6hv-21" value="" style="rounded=1;whiteSpace=wrap;html=1;strokeWidth=1;fontFamily=Times New Roman;fillColor=none;" parent="1" vertex="1">
          <mxGeometry x="556.5" y="348.75" width="30" height="20" as="geometry" />
        </mxCell>
        <mxCell id="Pp01OgDB8cOK3t0NA6hv-25" value="$${\alpha}_{t}$$" style="text;html=1;strokeColor=none;fillColor=none;align=center;verticalAlign=middle;whiteSpace=wrap;rounded=0;" parent="1" vertex="1">
          <mxGeometry x="618.25" y="348.75" width="21.75" height="17.5" as="geometry" />
        </mxCell>
        <mxCell id="Pp01OgDB8cOK3t0NA6hv-29" value="" style="rounded=1;whiteSpace=wrap;html=1;strokeWidth=1;fontFamily=Times New Roman;fillColor=none;" parent="1" vertex="1">
          <mxGeometry x="465" y="390" width="30" height="20" as="geometry" />
        </mxCell>
        <mxCell id="Pp01OgDB8cOK3t0NA6hv-34" value="" style="rounded=1;whiteSpace=wrap;html=1;strokeWidth=1;fontFamily=Times New Roman;fillColor=none;" parent="1" vertex="1">
          <mxGeometry x="380" y="347.5" width="20" height="22.5" as="geometry" />
        </mxCell>
        <mxCell id="Pp01OgDB8cOK3t0NA6hv-35" value="" style="rounded=1;whiteSpace=wrap;html=1;strokeWidth=1;fontFamily=Times New Roman;fillColor=none;" parent="1" vertex="1">
          <mxGeometry x="470" y="280" width="20" height="23.75" as="geometry" />
        </mxCell>
        <mxCell id="Pp01OgDB8cOK3t0NA6hv-44" value="" style="rounded=1;whiteSpace=wrap;html=1;strokeWidth=1;fontFamily=Times New Roman;fillColor=none;" parent="1" vertex="1">
          <mxGeometry x="740" y="274.37" width="40" height="35.01" as="geometry" />
        </mxCell>
        <mxCell id="Pp01OgDB8cOK3t0NA6hv-48" value="&lt;p style=&quot;line-height: 0%;&quot;&gt;&lt;font style=&quot;font-size: 12px;&quot; face=&quot;Times New Roman&quot;&gt;Modified Descent Step&lt;/font&gt;&lt;br&gt;&lt;/p&gt;" style="text;html=1;strokeColor=none;fillColor=none;align=center;verticalAlign=middle;whiteSpace=wrap;rounded=0;fontSize=7;" parent="1" vertex="1">
          <mxGeometry x="416.5" y="340" width="140" height="20" as="geometry" />
        </mxCell>
        <mxCell id="Pp01OgDB8cOK3t0NA6hv-49" value="$${Fit}_{T}^{d}$$" style="text;html=1;strokeColor=none;fillColor=none;align=center;verticalAlign=middle;whiteSpace=wrap;rounded=0;fontSize=11;fontFamily=Times New Roman;" parent="1" vertex="1">
          <mxGeometry x="745" y="289.39" width="30" height="20" as="geometry" />
        </mxCell>
        <mxCell id="dqOILAj7h7sax7pHXJvT-10" value="" style="rounded=1;whiteSpace=wrap;html=1;fillColor=none;strokeColor=#FF8000;dashed=1;" parent="1" vertex="1">
          <mxGeometry x="414" y="340" width="180" height="75" as="geometry" />
        </mxCell>
        <mxCell id="dqOILAj7h7sax7pHXJvT-37" style="edgeStyle=orthogonalEdgeStyle;rounded=0;orthogonalLoop=1;jettySize=auto;html=1;entryX=0;entryY=0.5;entryDx=0;entryDy=0;fontColor=#007FFF;" parent="1" source="dqOILAj7h7sax7pHXJvT-23" target="Pp01OgDB8cOK3t0NA6hv-19" edge="1">
          <mxGeometry relative="1" as="geometry" />
        </mxCell>
        <mxCell id="dqOILAj7h7sax7pHXJvT-23" value="" style="rounded=1;whiteSpace=wrap;html=1;strokeWidth=1;fontFamily=Times New Roman;fillColor=none;" parent="1" vertex="1">
          <mxGeometry x="616.5" y="348.75" width="23.5" height="20" as="geometry" />
        </mxCell>
        <mxCell id="dqOILAj7h7sax7pHXJvT-26" value="" style="rounded=1;whiteSpace=wrap;html=1;fillColor=none;strokeColor=#007FFF;dashed=1;" parent="1" vertex="1">
          <mxGeometry x="546.25" y="330" width="103.75" height="45.65" as="geometry" />
        </mxCell>
        <mxCell id="dqOILAj7h7sax7pHXJvT-29" value="&lt;b&gt;&lt;font color=&quot;#ff8000&quot;&gt;Online Learning Module&lt;/font&gt;&lt;/b&gt;" style="text;html=1;strokeColor=none;fillColor=none;align=center;verticalAlign=middle;whiteSpace=wrap;rounded=0;" parent="1" vertex="1">
          <mxGeometry x="437.5" y="412.5" width="145" height="30" as="geometry" />
        </mxCell>
        <mxCell id="dqOILAj7h7sax7pHXJvT-30" value="&lt;b style=&quot;&quot;&gt;&lt;font color=&quot;#007fff&quot;&gt;Randomized Rounding Module&lt;/font&gt;&lt;/b&gt;" style="text;html=1;strokeColor=none;fillColor=none;align=center;verticalAlign=middle;whiteSpace=wrap;rounded=0;" parent="1" vertex="1">
          <mxGeometry x="501.25" y="303.15" width="187.5" height="30" as="geometry" />
        </mxCell>
      </root>
    </mxGraphModel>
  </diagram>
</mxfile>
